<svg xmlns="http://www.w3.org/2000/svg" style="display:none">
  <defs>
    <symbol id="grid" viewBox="0 0 24 24" fill="none" stroke="currentColor" stroke-width="1.75" stroke-linecap="round" stroke-linejoin="round">
      <rect x="3" y="3" width="7.5" height="7.5" rx="1.2" />
      <rect x="13.5" y="3" width="7.5" height="7.5" rx="1.2" />
      <rect x="3" y="13.5" width="7.5" height="7.5" rx="1.2" />
      <rect x="13.5" y="13.5" width="7.5" height="7.5" rx="1.2" />
    </symbol>

    <symbol id="trending-up" viewBox="0 0 24 24" fill="none" stroke="currentColor" stroke-width="1.75" stroke-linecap="round" stroke-linejoin="round">
      <polyline points="3,17 9,11 13,15 21,5" />
      <polyline points="15,5 21,5 21,11" />
    </symbol>

    <symbol id="users" viewBox="0 0 24 24" fill="none" stroke="currentColor" stroke-width="1.75" stroke-linecap="round" stroke-linejoin="round">
      <circle cx="9" cy="8" r="3.25" />
      <path d="M3.5 20c0-3.6 2.9-6.2 5.9-6.2s5.9 2.6 5.9 6.2" />
      <circle cx="17" cy="9" r="2.6" />
      <path d="M15.3 20c0-2.6 1.8-4.7 4.2-5.3" />
    </symbol>

    <symbol id="credit-card" viewBox="0 0 24 24" fill="none" stroke="currentColor" stroke-width="1.75" stroke-linecap="round" stroke-linejoin="round">
      <rect x="2.5" y="5.5" width="19" height="13" rx="2" />
      <line x1="2.5" y1="10" x2="21.5" y2="10" />
      <line x1="5.5" y1="14.5" x2="9.5" y2="14.5" />
    </symbol>

    <symbol id="file-text" viewBox="0 0 24 24" fill="none" stroke="currentColor" stroke-width="1.75" stroke-linecap="round" stroke-linejoin="round">
      <path d="M7 3h7l4 4v14a1 1 0 0 1-1 1H7a1 1 0 0 1-1-1V4a1 1 0 0 1 1-1z" />
      <path d="M14 3v4h4" />
      <line x1="8.5" y1="12.5" x2="15.5" y2="12.5" />
      <line x1="8.5" y1="16" x2="15.5" y2="16" />
    </symbol>

    <symbol id="settings" viewBox="0 0 24 24" fill="none" stroke="currentColor" stroke-width="1.75" stroke-linecap="round" stroke-linejoin="round">
      <circle cx="12" cy="12" r="3" />
      <line x1="19" y1="12" x2="21.5" y2="12" />
      <line x1="16.95" y1="16.95" x2="18.72" y2="18.72" />
      <line x1="12" y1="19" x2="12" y2="21.5" />
      <line x1="7.05" y1="16.95" x2="5.28" y2="18.72" />
      <line x1="5" y1="12" x2="2.5" y2="12" />
      <line x1="7.05" y1="7.05" x2="5.28" y2="5.28" />
      <line x1="12" y1="5" x2="12" y2="2.5" />
      <line x1="16.95" y1="7.05" x2="18.72" y2="5.28" />
    </symbol>

    <symbol id="menu" viewBox="0 0 24 24" fill="none" stroke="currentColor" stroke-width="1.75" stroke-linecap="round" stroke-linejoin="round">
      <line x1="4" y1="7" x2="20" y2="7" />
      <line x1="4" y1="12" x2="20" y2="12" />
      <line x1="4" y1="17" x2="20" y2="17" />
    </symbol>

    <symbol id="x" viewBox="0 0 24 24" fill="none" stroke="currentColor" stroke-width="1.75" stroke-linecap="round" stroke-linejoin="round">
      <line x1="6" y1="6" x2="18" y2="18" />
      <line x1="18" y1="6" x2="6" y2="18" />
    </symbol>

    <symbol id="sun" viewBox="0 0 24 24" fill="none" stroke="currentColor" stroke-width="1.75" stroke-linecap="round" stroke-linejoin="round">
      <circle cx="12" cy="12" r="4" />
      <line x1="18" y1="12" x2="20.5" y2="12" />
      <line x1="16.24" y1="16.24" x2="18.01" y2="18.01" />
      <line x1="12" y1="18" x2="12" y2="20.5" />
      <line x1="7.76" y1="16.24" x2="5.99" y2="18.01" />
      <line x1="6" y1="12" x2="3.5" y2="12" />
      <line x1="7.76" y1="7.76" x2="5.99" y2="5.99" />
      <line x1="12" y1="6" x2="12" y2="3.5" />
      <line x1="16.24" y1="7.76" x2="18.01" y2="5.99" />
    </symbol>

    <symbol id="moon" viewBox="0 0 24 24" fill="none" stroke="currentColor" stroke-width="1.75" stroke-linecap="round" stroke-linejoin="round">
      <path d="M20 12.5A8.5 8.5 0 1 1 11.5 4a6.5 6.5 0 0 0 8.5 8.5z" />
    </symbol>

    <symbol id="arrow-up-right" viewBox="0 0 24 24" fill="none" stroke="currentColor" stroke-width="1.75" stroke-linecap="round" stroke-linejoin="round">
      <line x1="7" y1="17" x2="17" y2="7" />
      <polyline points="9,7 17,7 17,15" />
    </symbol>

    <symbol id="arrow-down-right" viewBox="0 0 24 24" fill="none" stroke="currentColor" stroke-width="1.75" stroke-linecap="round" stroke-linejoin="round">
      <line x1="7" y1="7" x2="17" y2="17" />
      <polyline points="17,9 17,17 9,17" />
    </symbol>

    <symbol id="minus" viewBox="0 0 24 24" fill="none" stroke="currentColor" stroke-width="1.75" stroke-linecap="round" stroke-linejoin="round">
      <line x1="5" y1="12" x2="19" y2="12" />
    </symbol>

    <symbol id="flag" viewBox="0 0 24 24" fill="none" stroke="currentColor" stroke-width="1.75" stroke-linecap="round" stroke-linejoin="round">
      <path d="M5 21V4" />
      <path d="M5 4.5h11.5l-2.75 3.75L16.5 12H5" />
    </symbol>

    <symbol id="alert" viewBox="0 0 24 24" fill="none" stroke="currentColor" stroke-width="1.75" stroke-linecap="round" stroke-linejoin="round">
      <path d="M12 3.5 2.5 20h19z" />
      <line x1="12" y1="9.5" x2="12" y2="14" />
      <circle cx="12" cy="17" r="0.9" fill="currentColor" stroke="none" />
    </symbol>
  </defs>
</svg>
